 <svg xmlns="http://www.w3.org/2000/svg" viewBox="0 0 295.1 75.53" style="width: 120px;">
            <defs><style>.logo-blue{fill:#00459a}</style></defs>
            <g>
              <path d="M266.44 17.12c6.72-.59 17.05.24 23.09 3.29 7.97 4.03 5.83 11.76 3.11 18.74-2.81 7.2-11.16 18.74-17.63 23.04-9.19 6.11-31.03 7.69-41.24 3.63-13.69-5.44-5.32-19.57-.16-28.88 8.03-14.49 16.16-18.36 32.83-19.83Zm-1.03 13.75c-3.01.49-4.37 1.67-5.9 4.09-3.09 4.89-5.25 11.75-7.8 17.04 2.02 5.17 7.99 1.81 10.18-1.82 1.16-1.92 6.64-14.42 6.8-16.05.23-2.41-.74-3.67-3.29-3.26Z" class="logo-blue"/>
              <g>
                <path d="m152.06 67.28 22.89-47.99 23.87-.36 5.57 22.64 10.46-22.73h23.92l-22.06 48.29-23.7.06-5.56-23.64-11.96 23.73h-23.43zm-11.5-54.31-18.29 38.16c.22 4.45 6.64 2.9 8.62 1.08 1.07-.97 5.32-10.6 6.4-12.92 3.14-6.69 5.88-13.67 8.78-20.46h23.92c-1.55 4.32-3.8 8.25-5.43 11.92-6.31 14.18-11.12 28.67-24.48 34.05-9.62 3.87-27.49 4.47-36.89.02-4.58-2.17-6.69-5.77-5.94-10.86l19.41-41.05 23.88.06Z" class="logo-blue"/>
              </g>
            </g>
            <path d="M100.23.06 29.96 75.18c-1.34 1.06-2.42-.46-1.35-2.32l31.76-56.98c-9.26.98-17.92 1.32-27.13 3.24-8.83 1.84-17.09 5.1-25.69 7.64 0 0 16.72 2.1 18.91 3.52L14.8 61.13s-2.39 4.43-2.26 3.19 3.03-28.08 3.03-28.08L.56 29.71c-1.24-.47-.22-2.21 1.03-3.43 8.12-7.9 28.54-15.89 39.61-19.04C60.19 1.85 80.53-.42 100.23.06Z" class="logo-blue"/>
          </svg>